<svg xmlns="http://www.w3.org/2000/svg" width="786.428466796875" height="668.1990966796875" viewBox="-345.9853820800781 -289.5546875 786.428466796875 668.1990966796875"><title>Neo4j Graph Visualization</title><desc>Created using Neo4j (http://www.neo4j.com/)</desc><g class="layer relationships"><g class="relationship" transform="translate(62.86745430712426 153.84990668883495) rotate(479.9040352562304)"><path class="outline" fill="#A5ABB6" stroke="none" d="M 32.5 0.5 L 69.1707920927669 0.5 L 69.1707920927669 -0.5 L 32.5 -0.5 Z M 84.5536045927669 0.5 L 121.2243966855338 0.5 L 121.2243966855338 3.5 L 128.2243966855338 0 L 121.2243966855338 -3.5 L 121.2243966855338 -0.5 L 84.5536045927669 -0.5 Z"/><text text-anchor="middle" pointer-events="none" font-size="8px" fill="#000000" x="76.8621983427669" y="3" transform="rotate(180 76.8621983427669 0)" font-family="sans-serif">29</text></g><g class="relationship" transform="translate(62.86745430712426 153.84990668883495) rotate(262.5051717217857)"><path class="outline" fill="#A5ABB6" stroke="none" d="M 32.5 0.5 L 62.79273577845868 0.5 L 62.79273577845868 -0.5 L 32.5 -0.5 Z M 73.48414202845868 0.5 L 103.77687780691735 0.5 L 103.77687780691735 3.5 L 110.77687780691735 0 L 103.77687780691735 -3.5 L 103.77687780691735 -0.5 L 73.48414202845868 -0.5 Z"/><text text-anchor="middle" pointer-events="none" font-size="8px" fill="#000000" x="68.13843890345868" y="3" transform="rotate(180 68.13843890345868 0)" font-family="sans-serif">7</text></g><g class="relationship" transform="translate(-17.745758373577132 143.8178897437318) rotate(367.09377824896046)"><path class="outline" fill="#A5ABB6" stroke="none" d="M 25 0.5 L 25.676112823334705 0.5 L 25.676112823334705 -0.5 L 25 -0.5 Z M 41.058925323334705 0.5 L 41.73503814666941 0.5 L 41.73503814666941 3.5 L 48.73503814666941 0 L 41.73503814666941 -3.5 L 41.73503814666941 -0.5 L 41.058925323334705 -0.5 Z"/><text text-anchor="middle" pointer-events="none" font-size="8px" fill="#000000" x="33.367519073334705" y="3" font-family="sans-serif">28</text></g><g class="relationship" transform="translate(-103.1383475531091 35.203106802406225) rotate(503.3433654844221)"><path class="outline" fill="#A5ABB6" stroke="none" d="M 32.5 0.5 L 76.28509544500515 0.5 L 76.28509544500515 -0.5 L 32.5 -0.5 Z M 91.66790794500515 0.5 L 135.4530033900103 0.5 L 135.4530033900103 3.5 L 142.4530033900103 0 L 135.4530033900103 -3.5 L 135.4530033900103 -0.5 L 91.66790794500515 -0.5 Z"/><text text-anchor="middle" pointer-events="none" font-size="8px" fill="#000000" x="83.97650169500515" y="3" transform="rotate(180 83.97650169500515 0)" font-family="sans-serif">61</text></g><g class="relationship" transform="translate(-103.1383475531091 35.203106802406225) rotate(348.09869536254496)"><path class="outline" fill="#A5ABB6" stroke="none" d="M 32.5 0.5 L 59.83545727421945 0.5 L 59.83545727421945 -0.5 L 32.5 -0.5 Z M 75.21826977421945 0.5 L 102.5537270484389 0.5 L 102.5537270484389 3.5 L 109.5537270484389 0 L 102.5537270484389 -3.5 L 102.5537270484389 -0.5 L 75.21826977421945 -0.5 Z"/><text text-anchor="middle" pointer-events="none" font-size="8px" fill="#000000" x="67.52686352421945" y="3" font-family="sans-serif">31</text></g><g class="relationship" transform="translate(-67.19259054829648 106.82872838075667) rotate(243.34993343247243)"><path class="outline" fill="#A5ABB6" stroke="none" d="M 25 0.5 L 25.12830523240931 0.5 L 25.12830523240931 -0.5 L 25 -0.5 Z M 40.51111773240931 0.5 L 40.63942296481862 0.5 L 40.63942296481862 3.5 L 47.63942296481862 0 L 40.63942296481862 -3.5 L 40.63942296481862 -0.5 L 40.51111773240931 -0.5 Z"/><text text-anchor="middle" pointer-events="none" font-size="8px" fill="#000000" x="32.81971148240931" y="3" transform="rotate(180 32.81971148240931 0)" font-family="sans-serif">34</text></g><g class="relationship" transform="translate(112.25592568488977 -101.46918085018194) rotate(483.12483003569093)"><path class="outline" fill="#A5ABB6" stroke="none" d="M 32.5 0.5 L 48.24225265072087 0.5 L 48.24225265072087 -0.5 L 32.5 -0.5 Z M 63.62506515072087 0.5 L 79.36731780144174 0.5 L 79.36731780144174 3.5 L 86.36731780144174 0 L 79.36731780144174 -3.5 L 79.36731780144174 -0.5 L 63.62506515072087 -0.5 Z"/><text text-anchor="middle" pointer-events="none" font-size="8px" fill="#000000" x="55.93365890072087" y="3" transform="rotate(180 55.93365890072087 0)" font-family="sans-serif">35</text></g><g class="relationship" transform="translate(32.601842579722174 -111.49822856189468) rotate(367.1762074806531)"><path class="outline" fill="#A5ABB6" stroke="none" d="M 25 0.5 L 25.200077134800182 0.5 L 25.200077134800182 -0.5 L 25 -0.5 Z M 40.58288963480018 0.5 L 40.782966769600364 0.5 L 40.782966769600364 3.5 L 47.782966769600364 0 L 40.782966769600364 -3.5 L 40.782966769600364 -0.5 L 40.58288963480018 -0.5 Z"/><text text-anchor="middle" pointer-events="none" font-size="8px" fill="#000000" x="32.89148338480018" y="3" font-family="sans-serif">60</text></g><g class="relationship" transform="translate(-89.35889914307788 -190.91679762079224) rotate(498.90132352577007)"><path class="outline" fill="#A5ABB6" stroke="none" d="M 32.5 0.5 L 54.803370552003756 0.5 L 54.803370552003756 -0.5 L 32.5 -0.5 Z M 70.18618305200376 0.5 L 92.48955360400751 0.5 L 92.48955360400751 3.5 L 99.48955360400751 0 L 92.48955360400751 -3.5 L 92.48955360400751 -0.5 L 70.18618305200376 -0.5 Z"/><text text-anchor="middle" pointer-events="none" font-size="8px" fill="#000000" x="62.494776802003756" y="3" transform="rotate(180 62.494776802003756 0)" font-family="sans-serif">97</text></g><g class="relationship" transform="translate(-89.35889914307788 -190.91679762079224) rotate(342.05535247207047)"><path class="outline" fill="#A5ABB6" stroke="none" d="M 32.5 0.5 L 73.728228882359 0.5 L 73.728228882359 -0.5 L 32.5 -0.5 Z M 89.111041382359 0.5 L 130.339270264718 0.5 L 130.339270264718 3.5 L 137.339270264718 0 L 130.339270264718 -3.5 L 130.339270264718 -0.5 L 89.111041382359 -0.5 Z"/><text text-anchor="middle" pointer-events="none" font-size="8px" fill="#000000" x="81.419635132359" y="3" font-family="sans-serif">66</text></g><g class="relationship" transform="translate(-89.35889914307788 -190.91679762079224) rotate(415.8303690136918)"><path class="outline" fill="#A5ABB6" stroke="none" d="M 32.5 0.5 L 103.06866718190412 0.5 L 103.06866718190412 -0.5 L 32.5 -0.5 Z M 118.45147968190412 0.5 L 189.02014686380824 0.5 L 189.02014686380824 3.5 L 196.02014686380824 0 L 189.02014686380824 -3.5 L 189.02014686380824 -0.5 L 118.45147968190412 -0.5 Z"/><text text-anchor="middle" pointer-events="none" font-size="8px" fill="#000000" x="110.76007343190412" y="3" font-family="sans-serif">63</text></g><g class="relationship" transform="translate(-90.31338645188487 -49.94021152743555) rotate(270.3879173151689)"><path class="outline" fill="#A5ABB6" stroke="none" d="M 25 0.5 L 55.548502376271244 0.5 L 55.548502376271244 -0.5 L 25 -0.5 Z M 70.93131487627124 0.5 L 101.47981725254249 0.5 L 101.47981725254249 3.5 L 108.47981725254249 0 L 101.47981725254249 -3.5 L 101.47981725254249 -0.5 L 70.93131487627124 -0.5 Z"/><text text-anchor="middle" pointer-events="none" font-size="8px" fill="#000000" x="63.239908626271244" y="3" font-family="sans-serif">65</text></g><g class="relationship" transform="translate(301.8860686170784 145.9655801425487) rotate(489.97018286049945)"><path class="outline" fill="#A5ABB6" stroke="none" d="M 32.5 0.5 L 43.675218417028034 0.5 L 43.675218417028034 -0.5 L 32.5 -0.5 Z M 63.749437167028034 0.5 L 74.92465558405607 0.5 L 74.92465558405607 3.5 L 81.92465558405607 0 L 74.92465558405607 -3.5 L 74.92465558405607 -0.5 L 63.749437167028034 -0.5 Z"/><text text-anchor="middle" pointer-events="none" font-size="8px" fill="#000000" x="53.712327792028034" y="3" transform="rotate(180 53.712327792028034 0)" font-family="sans-serif">150</text></g><g class="relationship" transform="translate(301.8860686170784 145.9655801425487) rotate(309.50499768699444)"><path class="outline" fill="#A5ABB6" stroke="none" d="M 32.5 0.5 L 59.378913074122494 0.5 L 59.378913074122494 -0.5 L 32.5 -0.5 Z M 74.7617255741225 0.5 L 101.64063864824499 0.5 L 101.64063864824499 3.5 L 108.64063864824499 0 L 101.64063864824499 -3.5 L 101.64063864824499 -0.5 L 74.7617255741225 -0.5 Z"/><text text-anchor="middle" pointer-events="none" font-size="8px" fill="#000000" x="67.0703193241225" y="3" font-family="sans-serif">68</text></g><g class="relationship" transform="translate(375.16095672640836 205.94719115114611) rotate(219.30318859162196)"><path class="outline" fill="#A5ABB6" stroke="none" d="M 25 0.5 L 32.40572377553987 0.5 L 32.40572377553987 -0.5 L 25 -0.5 Z M 47.78853627553987 0.5 L 55.19426005107974 0.5 L 55.19426005107974 3.5 L 62.19426005107974 0 L 55.19426005107974 -3.5 L 55.19426005107974 -0.5 L 47.78853627553987 -0.5 Z"/><text text-anchor="middle" pointer-events="none" font-size="8px" fill="#000000" x="40.09713002553987" y="3" transform="rotate(180 40.09713002553987 0)" font-family="sans-serif">96</text></g><g class="relationship" transform="translate(223.56302718690785 239.40605756223272) rotate(347.5538979357659)"><path class="outline" fill="#A5ABB6" stroke="none" d="M 40 0.5 L 71.58606368269312 0.5 L 71.58606368269312 -0.5 L 40 -0.5 Z M 91.66028243269312 0.5 L 123.24634611538625 0.5 L 123.24634611538625 3.5 L 130.24634611538625 0 L 123.24634611538625 -3.5 L 123.24634611538625 -0.5 L 91.66028243269312 -0.5 Z"/><text text-anchor="middle" pointer-events="none" font-size="8px" fill="#000000" x="81.62317305769312" y="3" font-family="sans-serif">151</text></g><g class="relationship" transform="translate(223.56302718690785 239.40605756223272) rotate(490.1038878750781)"><path class="outline" fill="#A5ABB6" stroke="none" d="M 40 0.5 L 66.02559982128231 0.5 L 66.02559982128231 -0.5 L 40 -0.5 Z M 86.09981857128231 0.5 L 112.12541839256463 0.5 L 112.12541839256463 3.5 L 119.12541839256463 0 L 112.12541839256463 -3.5 L 112.12541839256463 -0.5 L 86.09981857128231 -0.5 Z"/><text text-anchor="middle" pointer-events="none" font-size="8px" fill="#000000" x="76.06270919628231" y="3" transform="rotate(180 76.06270919628231 0)" font-family="sans-serif">149</text></g><g class="relationship" transform="translate(226.4164331250198 -117.99874837519465) rotate(401.28205781562383)"><path class="outline" fill="#A5ABB6" stroke="none" d="M 32.5 0.5 L 95.8421817169885 0.5 L 95.8421817169885 -0.5 L 32.5 -0.5 Z M 115.9164004669885 0.5 L 179.258582183977 0.5 L 179.258582183977 3.5 L 186.258582183977 0 L 179.258582183977 -3.5 L 179.258582183977 -0.5 L 115.9164004669885 -0.5 Z"/><text text-anchor="middle" pointer-events="none" font-size="8px" fill="#000000" x="105.8792910919885" y="3" font-family="sans-serif">279</text></g><g class="relationship" transform="translate(226.4164331250198 -117.99874837519465) rotate(220.9369593222683)"><path class="outline" fill="#A5ABB6" stroke="none" d="M 32.5 0.5 L 80.04991235482295 0.5 L 80.04991235482295 -0.5 L 32.5 -0.5 Z M 100.12413110482295 0.5 L 147.6740434596459 0.5 L 147.6740434596459 3.5 L 154.6740434596459 0 L 147.6740434596459 -3.5 L 147.6740434596459 -0.5 L 100.12413110482295 -0.5 Z"/><text text-anchor="middle" pointer-events="none" font-size="8px" fill="#000000" x="90.08702172982295" y="3" transform="rotate(180 90.08702172982295 0)" font-family="sans-serif">276</text></g><g class="relationship" transform="translate(79.35363288428897 -245.55468113523133) rotate(490.93686934861637)"><path class="outline" fill="#A5ABB6" stroke="none" d="M 40 0.5 L 125.78051944275478 0.5 L 125.78051944275478 -0.5 L 40 -0.5 Z M 141.16333194275478 0.5 L 226.94385138550956 0.5 L 226.94385138550956 3.5 L 233.94385138550956 0 L 226.94385138550956 -3.5 L 226.94385138550956 -0.5 L 141.16333194275478 -0.5 Z"/><text text-anchor="middle" pointer-events="none" font-size="8px" fill="#000000" x="133.47192569275478" y="3" transform="rotate(180 133.47192569275478 0)" font-family="sans-serif">67</text></g><g class="relationship" transform="translate(79.35363288428897 -245.55468113523133) rotate(375.93447943311344)"><path class="outline" fill="#A5ABB6" stroke="none" d="M 40 0.5 L 104.8574898889493 0.5 L 104.8574898889493 -0.5 L 40 -0.5 Z M 124.9317086389493 0.5 L 189.7891985278986 0.5 L 189.7891985278986 3.5 L 196.7891985278986 0 L 189.7891985278986 -3.5 L 189.7891985278986 -0.5 L 124.9317086389493 -0.5 Z"/><text text-anchor="middle" pointer-events="none" font-size="8px" fill="#000000" x="114.8945992639493" y="3" font-family="sans-serif">277</text></g><g class="relationship" transform="translate(292.62086364990205 -184.66513469896395) rotate(494.80079891445973)"><path class="outline" fill="#A5ABB6" stroke="none" d="M 25 0.5 L 29.69010235205446 0.5 L 29.69010235205446 -0.5 L 25 -0.5 Z M 49.76432110205446 0.5 L 54.45442345410892 0.5 L 54.45442345410892 3.5 L 61.45442345410892 0 L 54.45442345410892 -3.5 L 54.45442345410892 -0.5 L 49.76432110205446 -0.5 Z"/><text text-anchor="middle" pointer-events="none" font-size="8px" fill="#000000" x="39.72721172705446" y="3" transform="rotate(180 39.72721172705446 0)" font-family="sans-serif">278</text></g><g class="relationship" transform="translate(396.44314552647097 31.279056679199435) rotate(456.9468798246968)"><path class="outline" fill="#A5ABB6" stroke="none" d="M 40 0.5 L 84.28854709170102 0.5 L 84.28854709170102 -0.5 L 40 -0.5 Z M 99.67135959170102 0.5 L 143.95990668340204 0.5 L 143.95990668340204 3.5 L 150.95990668340204 0 L 143.95990668340204 -3.5 L 143.95990668340204 -0.5 L 99.67135959170102 -0.5 Z"/><text text-anchor="middle" pointer-events="none" font-size="8px" fill="#000000" x="91.97995334170102" y="3" transform="rotate(180 91.97995334170102 0)" font-family="sans-serif">80</text></g><g class="relationship" transform="translate(396.44314552647097 31.279056679199435) rotate(187.21328568468687)"><path class="outline" fill="#A5ABB6" stroke="none" d="M 40 0.5 L 88.82459016399532 0.5 L 88.82459016399532 -0.5 L 40 -0.5 Z M 108.89880891399532 0.5 L 157.72339907799065 0.5 L 157.72339907799065 3.5 L 164.72339907799065 0 L 157.72339907799065 -3.5 L 157.72339907799065 -0.5 L 108.89880891399532 -0.5 Z"/><text text-anchor="middle" pointer-events="none" font-size="8px" fill="#000000" x="98.86169953899532" y="3" transform="rotate(180 98.86169953899532 0)" font-family="sans-serif">295</text></g><g class="relationship" transform="translate(396.44314552647097 31.279056679199435) rotate(529.4553361289014)"><path class="outline" fill="#A5ABB6" stroke="none" d="M 40 0.5 L 94.2619084238514 0.5 L 94.2619084238514 -0.5 L 40 -0.5 Z M 114.3361271738514 0.5 L 168.5980355977028 0.5 L 168.5980355977028 3.5 L 175.5980355977028 0 L 168.5980355977028 -3.5 L 168.5980355977028 -0.5 L 114.3361271738514 -0.5 Z"/><text text-anchor="middle" pointer-events="none" font-size="8px" fill="#000000" x="104.2990177988514" y="3" transform="rotate(180 104.2990177988514 0)" font-family="sans-serif">285</text></g><g class="relationship" transform="translate(396.44314552647097 31.279056679199435) rotate(244.32254659658486)"><path class="outline" fill="#A5ABB6" stroke="none" d="M 40 0.5 L 113.76581212947187 0.5 L 113.76581212947187 -0.5 L 40 -0.5 Z M 133.84003087947187 0.5 L 207.60584300894374 0.5 L 207.60584300894374 3.5 L 214.60584300894374 0 L 207.60584300894374 -3.5 L 207.60584300894374 -0.5 L 133.84003087947187 -0.5 Z"/><text text-anchor="middle" pointer-events="none" font-size="8px" fill="#000000" x="123.80292150447187" y="3" transform="rotate(180 123.80292150447187 0)" font-family="sans-serif">280</text></g><g class="relationship" transform="translate(169.41646243300926 133.2069100873381) rotate(335.8214167049115)"><path class="outline" fill="#A5ABB6" stroke="none" d="M 32.5 0.5 L 107.1419890473647 0.5 L 107.1419890473647 -0.5 L 32.5 -0.5 Z M 127.2162077973647 0.5 L 201.8581968447294 0.5 L 201.8581968447294 3.5 L 208.8581968447294 0 L 201.8581968447294 -3.5 L 201.8581968447294 -0.5 L 127.2162077973647 -0.5 Z"/><text text-anchor="middle" pointer-events="none" font-size="8px" fill="#000000" x="117.1790984223647" y="3" font-family="sans-serif">284</text></g><g class="relationship" transform="translate(169.41646243300926 133.2069100873381) rotate(225.59074536943683)"><path class="outline" fill="#A5ABB6" stroke="none" d="M 32.5 0.5 L 72.8955727448543 0.5 L 72.8955727448543 -0.5 L 32.5 -0.5 Z M 92.9697914948543 0.5 L 133.3653642397086 0.5 L 133.3653642397086 3.5 L 140.3653642397086 0 L 133.3653642397086 -3.5 L 133.3653642397086 -0.5 L 92.9697914948543 -0.5 Z"/><text text-anchor="middle" pointer-events="none" font-size="8px" fill="#000000" x="82.9326821198543" y="3" transform="rotate(180 82.9326821198543 0)" font-family="sans-serif">281</text></g><g class="relationship" transform="translate(43.200615879528605 4.361170165092338) rotate(202.13203102383778)"><path class="outline" fill="#A5ABB6" stroke="none" d="M 40 0.5 L 68.37562656020783 0.5 L 68.37562656020783 -0.5 L 40 -0.5 Z M 83.75843906020783 0.5 L 112.13406562041567 0.5 L 112.13406562041567 3.5 L 119.13406562041567 0 L 112.13406562041567 -3.5 L 112.13406562041567 -0.5 L 83.75843906020783 -0.5 Z"/><text text-anchor="middle" pointer-events="none" font-size="8px" fill="#000000" x="76.06703281020783" y="3" transform="rotate(180 76.06703281020783 0)" font-family="sans-serif">64</text></g><g class="relationship" transform="translate(43.200615879528605 4.361170165092338) rotate(264.7731520263803)"><path class="outline" fill="#A5ABB6" stroke="none" d="M 40 0.5 L 54.48018103460065 0.5 L 54.48018103460065 -0.5 L 40 -0.5 Z M 69.86299353460065 0.5 L 84.3431745692013 0.5 L 84.3431745692013 3.5 L 91.3431745692013 0 L 84.3431745692013 -3.5 L 84.3431745692013 -0.5 L 69.86299353460065 -0.5 Z"/><text text-anchor="middle" pointer-events="none" font-size="8px" fill="#000000" x="62.17158728460065" y="3" transform="rotate(180 62.17158728460065 0)" font-family="sans-serif">59</text></g><g class="relationship" transform="translate(43.200615879528605 4.361170165092338) rotate(497.13236344861735)"><path class="outline" fill="#A5ABB6" stroke="none" d="M 40 0.5 L 71.6183881198178 0.5 L 71.6183881198178 -0.5 L 40 -0.5 Z M 87.0012006198178 0.5 L 118.61958873963559 0.5 L 118.61958873963559 3.5 L 125.61958873963559 0 L 118.61958873963559 -3.5 L 118.61958873963559 -0.5 L 87.0012006198178 -0.5 Z"/><text text-anchor="middle" pointer-events="none" font-size="8px" fill="#000000" x="79.3097943698178" y="3" transform="rotate(180 79.3097943698178 0)" font-family="sans-serif">32</text></g><g class="relationship" transform="translate(43.200615879528605 4.361170165092338) rotate(473.6066345420711)"><path class="outline" fill="#A5ABB6" stroke="none" d="M 40 0.5 L 74.75067847464459 0.5 L 74.75067847464459 -0.5 L 40 -0.5 Z M 85.44208472464459 0.5 L 120.19276319928917 0.5 L 120.19276319928917 3.5 L 127.19276319928917 0 L 120.19276319928917 -3.5 L 120.19276319928917 -0.5 L 85.44208472464459 -0.5 Z"/><text text-anchor="middle" pointer-events="none" font-size="8px" fill="#000000" x="80.09638159964459" y="3" transform="rotate(180 80.09638159964459 0)" font-family="sans-serif">8</text></g><g class="relationship" transform="translate(43.200615879528605 4.361170165092338) rotate(361.074675502878)"><path class="outline" fill="#A5ABB6" stroke="none" d="M 40 0.5 L 76.48774430874539 0.5 L 76.48774430874539 -0.5 L 40 -0.5 Z M 96.56196305874539 0.5 L 133.04970736749078 0.5 L 133.04970736749078 3.5 L 140.04970736749078 0 L 133.04970736749078 -3.5 L 133.04970736749078 -0.5 L 96.56196305874539 -0.5 Z"/><text text-anchor="middle" pointer-events="none" font-size="8px" fill="#000000" x="86.52485368374539" y="3" font-family="sans-serif">292</text></g><g class="relationship" transform="translate(43.200615879528605 4.361170165092338) rotate(382.1849531390256)"><path class="outline" fill="#A5ABB6" stroke="none" d="M 40 0.5 L 78.21622510352319 0.5 L 78.21622510352319 -0.5 L 40 -0.5 Z M 98.29044385352319 0.5 L 136.50666895704637 0.5 L 136.50666895704637 3.5 L 143.50666895704637 0 L 136.50666895704637 -3.5 L 136.50666895704637 -0.5 L 98.29044385352319 -0.5 Z"/><text text-anchor="middle" pointer-events="none" font-size="8px" fill="#000000" x="88.25333447852319" y="3" font-family="sans-serif">282</text></g><g class="relationship" transform="translate(199.2326991288899 67.98888802345972) rotate(474.5688308284251)"><path class="outline" fill="#A5ABB6" stroke="none" d="M 25 0.5 L 28.60525893306763 0.5 L 28.60525893306763 -0.5 L 25 -0.5 Z M 28.60525893306763 0.5 L 32.21051786613526 0.5 L 32.21051786613526 3.5 L 39.21051786613526 0 L 32.21051786613526 -3.5 L 32.21051786613526 -0.5 L 28.60525893306763 -0.5 Z"/><text text-anchor="middle" pointer-events="none" font-size="8px" fill="#000000" x="28.60525893306763" y="3" transform="rotate(180 28.60525893306763 0)" font-family="sans-serif"/></g><g class="relationship" transform="translate(-223.26193425570864 20.486073057712176) rotate(283.5213903197865)"><path class="outline" fill="#A5ABB6" stroke="none" d="M 32.5 0.5 L 44.273339673058665 0.5 L 44.273339673058665 -0.5 L 32.5 -0.5 Z M 64.34755842305867 0.5 L 76.12089809611733 0.5 L 76.12089809611733 3.5 L 83.12089809611733 0 L 76.12089809611733 -3.5 L 76.12089809611733 -0.5 L 64.34755842305867 -0.5 Z"/><text text-anchor="middle" pointer-events="none" font-size="8px" fill="#000000" x="54.310449048058665" y="3" font-family="sans-serif">289</text></g><g class="relationship" transform="translate(-223.26193425570864 20.486073057712176) rotate(461.9839331479754)"><path class="outline" fill="#A5ABB6" stroke="none" d="M 32.5 0.5 L 45.91266794489633 0.5 L 45.91266794489633 -0.5 L 32.5 -0.5 Z M 65.98688669489633 0.5 L 79.39955463979265 0.5 L 79.39955463979265 3.5 L 86.39955463979265 0 L 79.39955463979265 -3.5 L 79.39955463979265 -0.5 L 65.98688669489633 -0.5 Z"/><text text-anchor="middle" pointer-events="none" font-size="8px" fill="#000000" x="55.94977731989633" y="3" transform="rotate(180 55.94977731989633 0)" font-family="sans-serif">286</text></g><g class="relationship" transform="translate(-249.50720800678806 144.13085870946875) rotate(348.4367007208002)"><path class="outline" fill="#A5ABB6" stroke="none" d="M 40 0.5 L 89.3543737001089 0.5 L 89.3543737001089 -0.5 L 40 -0.5 Z M 104.7371862001089 0.5 L 154.0915599002178 0.5 L 154.0915599002178 3.5 L 161.0915599002178 0 L 154.0915599002178 -3.5 L 154.0915599002178 -0.5 L 104.7371862001089 -0.5 Z"/><text text-anchor="middle" pointer-events="none" font-size="8px" fill="#000000" x="97.0457799501089" y="3" font-family="sans-serif">62</text></g><g class="relationship" transform="translate(-249.50720800678806 144.13085870946875) rotate(428.513368896286)"><path class="outline" fill="#A5ABB6" stroke="none" d="M 40 0.5 L 75.35507608790002 0.5 L 75.35507608790002 -0.5 L 40 -0.5 Z M 86.04648233790002 0.5 L 121.40155842580003 0.5 L 121.40155842580003 3.5 L 128.40155842580003 0 L 121.40155842580003 -3.5 L 121.40155842580003 -0.5 L 86.04648233790002 -0.5 Z"/><text text-anchor="middle" pointer-events="none" font-size="8px" fill="#000000" x="80.70077921290002" y="3" font-family="sans-serif">3</text></g><g class="relationship" transform="translate(-249.50720800678806 144.13085870946875) rotate(244.3397519027052)"><path class="outline" fill="#A5ABB6" stroke="none" d="M 40 0.5 L 71.87616050668119 0.5 L 71.87616050668119 -0.5 L 40 -0.5 Z M 91.95037925668119 0.5 L 123.82653976336238 0.5 L 123.82653976336238 3.5 L 130.82653976336238 0 L 123.82653976336238 -3.5 L 123.82653976336238 -0.5 L 91.95037925668119 -0.5 Z"/><text text-anchor="middle" pointer-events="none" font-size="8px" fill="#000000" x="81.91326988168119" y="3" transform="rotate(180 81.91326988168119 0)" font-family="sans-serif">287</text></g><g class="relationship" transform="translate(-316.9853684686241 3.672294159956614) rotate(370.17055011529015)"><path class="outline" fill="#A5ABB6" stroke="none" d="M 25 0.5 L 30.322724907124154 0.5 L 30.322724907124154 -0.5 L 25 -0.5 Z M 50.396943657124154 0.5 L 55.71966856424831 0.5 L 55.71966856424831 3.5 L 62.71966856424831 0 L 55.71966856424831 -3.5 L 55.71966856424831 -0.5 L 50.396943657124154 -0.5 Z"/><text text-anchor="middle" pointer-events="none" font-size="8px" fill="#000000" x="40.359834282124154" y="3" font-family="sans-serif">288</text></g><g class="relationship" transform="translate(-194.47523850895703 -99.22224618526468) rotate(385.32020756713877)"><path class="outline" fill="#A5ABB6" stroke="none" d="M 40 0.5 L 53.92458624334958 0.5 L 53.92458624334958 -0.5 L 40 -0.5 Z M 69.30739874334958 0.5 L 83.23198498669916 0.5 L 83.23198498669916 3.5 L 90.23198498669916 0 L 83.23198498669916 -3.5 L 83.23198498669916 -0.5 L 69.30739874334958 -0.5 Z"/><text text-anchor="middle" pointer-events="none" font-size="8px" fill="#000000" x="61.61599249334958" y="3" font-family="sans-serif">98</text></g><g class="relationship" transform="translate(-194.47523850895703 -99.22224618526468) rotate(499.9735712467633)"><path class="outline" fill="#A5ABB6" stroke="none" d="M 40 0.5 L 73.95666909493615 0.5 L 73.95666909493615 -0.5 L 40 -0.5 Z M 94.03088784493615 0.5 L 127.98755693987229 0.5 L 127.98755693987229 3.5 L 134.9875569398723 0 L 127.98755693987229 -3.5 L 127.98755693987229 -0.5 L 94.03088784493615 -0.5 Z"/><text text-anchor="middle" pointer-events="none" font-size="8px" fill="#000000" x="83.99377846993615" y="3" transform="rotate(180 83.99377846993615 0)" font-family="sans-serif">290</text></g><g class="relationship" transform="translate(178.5423336245178 -55.89905971688028) rotate(381.8054423118855)"><path class="outline" fill="#A5ABB6" stroke="none" d="M 32.5 0.5 L 100.05937310945583 0.5 L 100.05937310945583 -0.5 L 32.5 -0.5 Z M 120.13359185945583 0.5 L 187.69296496891167 0.5 L 187.69296496891167 3.5 L 194.69296496891167 0 L 187.69296496891167 -3.5 L 187.69296496891167 -0.5 L 120.13359185945583 -0.5 Z"/><text text-anchor="middle" pointer-events="none" font-size="8px" fill="#000000" x="110.09648248445583" y="3" font-family="sans-serif">294</text></g><g class="relationship" transform="translate(178.5423336245178 -55.89905971688028) rotate(515.999217494044)"><path class="outline" fill="#A5ABB6" stroke="none" d="M 32.5 0.5 L 56.78831817623406 0.5 L 56.78831817623406 -0.5 L 32.5 -0.5 Z M 76.86253692623406 0.5 L 101.15085510246811 0.5 L 101.15085510246811 3.5 L 108.15085510246811 0 L 101.15085510246811 -3.5 L 101.15085510246811 -0.5 L 76.86253692623406 -0.5 Z"/><text text-anchor="middle" pointer-events="none" font-size="8px" fill="#000000" x="66.82542755123406" y="3" transform="rotate(180 66.82542755123406 0)" font-family="sans-serif">291</text></g><g class="relationship" transform="translate(208.22129094559278 7.456764265553541) rotate(244.89931718251927)"><path class="outline" fill="#A5ABB6" stroke="none" d="M 25 0.5 L 27.73142700119353 0.5 L 27.73142700119353 -0.5 L 25 -0.5 Z M 27.73142700119353 0.5 L 30.46285400238706 0.5 L 30.46285400238706 3.5 L 37.46285400238706 0 L 30.46285400238706 -3.5 L 30.46285400238706 -0.5 L 27.73142700119353 -0.5 Z"/><text text-anchor="middle" pointer-events="none" font-size="8px" fill="#000000" x="27.73142700119353" y="3" transform="rotate(180 27.73142700119353 0)" font-family="sans-serif"/></g><g class="relationship" transform="translate(110.87843154926344 268.8542936948297) rotate(345.3542522688814)"><path class="outline" fill="#A5ABB6" stroke="none" d="M 32.5 0.5 L 40.9473664647906 0.5 L 40.9473664647906 -0.5 L 32.5 -0.5 Z M 61.0215852147906 0.5 L 69.4689516795812 0.5 L 69.4689516795812 3.5 L 76.4689516795812 0 L 69.4689516795812 -3.5 L 69.4689516795812 -0.5 L 61.0215852147906 -0.5 Z"/><text text-anchor="middle" pointer-events="none" font-size="8px" fill="#000000" x="50.9844758397906" y="3" font-family="sans-serif">139</text></g><g class="relationship" transform="translate(110.87843154926344 268.8542936948297) rotate(526.8449202775374)"><path class="outline" fill="#A5ABB6" stroke="none" d="M 32.5 0.5 L 50.42945722903484 0.5 L 50.42945722903484 -0.5 L 32.5 -0.5 Z M 70.50367597903484 0.5 L 88.43313320806968 0.5 L 88.43313320806968 3.5 L 95.43313320806968 0 L 88.43313320806968 -3.5 L 88.43313320806968 -0.5 L 70.50367597903484 -0.5 Z"/><text text-anchor="middle" pointer-events="none" font-size="8px" fill="#000000" x="60.46656660403484" y="3" transform="rotate(180 60.46656660403484 0)" font-family="sans-serif">296</text></g><g class="relationship" transform="translate(-21.000615573491757 299.677182925868) rotate(271.19635136035595)"><path class="outline" fill="#A5ABB6" stroke="none" d="M 40 0.5 L 74.25523153288793 0.5 L 74.25523153288793 -0.5 L 40 -0.5 Z M 89.63804403288793 0.5 L 123.89327556577587 0.5 L 123.89327556577587 3.5 L 130.89327556577587 0 L 123.89327556577587 -3.5 L 123.89327556577587 -0.5 L 89.63804403288793 -0.5 Z"/><text text-anchor="middle" pointer-events="none" font-size="8px" fill="#000000" x="81.94663778288793" y="3" font-family="sans-serif">30</text></g><g class="relationship" transform="translate(-21.000615573491757 299.677182925868) rotate(184.25008686412815)"><path class="outline" fill="#A5ABB6" stroke="none" d="M 40 0.5 L 85.05089995212947 0.5 L 85.05089995212947 -0.5 L 40 -0.5 Z M 95.74230620212947 0.5 L 140.79320615425894 0.5 L 140.79320615425894 3.5 L 147.79320615425894 0 L 140.79320615425894 -3.5 L 140.79320615425894 -0.5 L 95.74230620212947 -0.5 Z"/><text text-anchor="middle" pointer-events="none" font-size="8px" fill="#000000" x="90.39660307712947" y="3" transform="rotate(180 90.39660307712947 0)" font-family="sans-serif">6</text></g><g class="relationship" transform="translate(-21.000615573491757 299.677182925868) rotate(378.2285120591723)"><path class="outline" fill="#A5ABB6" stroke="none" d="M 40 0.5 L 78.52318389329892 0.5 L 78.52318389329892 -0.5 L 40 -0.5 Z M 89.21459014329892 0.5 L 127.73777403659784 0.5 L 127.73777403659784 3.5 L 134.73777403659784 0 L 127.73777403659784 -3.5 L 127.73777403659784 -0.5 L 89.21459014329892 -0.5 Z"/><text text-anchor="middle" pointer-events="none" font-size="8px" fill="#000000" x="83.86888701829892" y="3" font-family="sans-serif">0</text></g><g class="relationship" transform="translate(130.72095898164963 349.6443748489275) rotate(256.20094961778045)"><path class="outline" fill="#A5ABB6" stroke="none" d="M 25 0.5 L 28.999858861198433 0.5 L 28.999858861198433 -0.5 L 25 -0.5 Z M 39.69126511119843 0.5 L 43.691123972396866 0.5 L 43.691123972396866 3.5 L 50.691123972396866 0 L 43.691123972396866 -3.5 L 43.691123972396866 -0.5 L 39.69126511119843 -0.5 Z"/><text text-anchor="middle" pointer-events="none" font-size="8px" fill="#000000" x="34.34556198619843" y="3" transform="rotate(180 34.34556198619843 0)" font-family="sans-serif">1</text></g><g class="relationship" transform="translate(-134.5733422025273 221.5936958308273) rotate(394.5092894901031)"><path class="outline" fill="#A5ABB6" stroke="none" d="M 32.5 0.5 L 56.316913990581654 0.5 L 56.316913990581654 -0.5 L 32.5 -0.5 Z M 67.00832024058165 0.5 L 90.82523423116331 0.5 L 90.82523423116331 3.5 L 97.82523423116331 0 L 90.82523423116331 -3.5 L 90.82523423116331 -0.5 L 67.00832024058165 -0.5 Z"/><text text-anchor="middle" pointer-events="none" font-size="8px" fill="#000000" x="61.662617115581654" y="3" font-family="sans-serif">5</text></g><g class="relationship" transform="translate(-134.5733422025273 221.5936958308273) rotate(213.97908280346212)"><path class="outline" fill="#A5ABB6" stroke="none" d="M 32.5 0.5 L 56.70488244900858 0.5 L 56.70488244900858 -0.5 L 32.5 -0.5 Z M 67.39628869900858 0.5 L 91.60117114801716 0.5 L 91.60117114801716 3.5 L 98.60117114801716 0 L 91.60117114801716 -3.5 L 91.60117114801716 -0.5 L 67.39628869900858 -0.5 Z"/><text text-anchor="middle" pointer-events="none" font-size="8px" fill="#000000" x="62.05058557400858" y="3" transform="rotate(180 62.05058557400858 0)" font-family="sans-serif">2</text></g><g class="relationship" transform="translate(-193.31865298067666 286.87147805638693) rotate(311.98493653094727)"><path class="outline" fill="#A5ABB6" stroke="none" d="M 25 0.5 L 31.3138641431619 0.5 L 31.3138641431619 -0.5 L 25 -0.5 Z M 42.0052703931619 0.5 L 48.3191345363238 0.5 L 48.3191345363238 3.5 L 55.3191345363238 0 L 48.3191345363238 -3.5 L 48.3191345363238 -0.5 L 42.0052703931619 -0.5 Z"/><text text-anchor="middle" pointer-events="none" font-size="8px" fill="#000000" x="36.6595672681619" y="3" font-family="sans-serif">4</text></g></g><g class="layer nodes"><g class="node" transform="translate(62.86745430712426,153.84990668883495)"><circle class="outline" cx="0" cy="0" r="32.5" fill="#57C7E3" stroke="#23b3d7" stroke-width="2px"/><text text-anchor="middle" pointer-events="none" font-family="sans-serif" dy="2.03125" font-size="32.5" fill="#FFFFFF"/><text text-anchor="middle" pointer-events="none" font-family="sans-serif" dy="2.03125" font-size="32.5" fill="#FFFFFF"/><text text-anchor="middle" pointer-events="none" y="0" font-size="10px" fill="#FFFFFF" font-family="sans-serif"> LG LE6016D</text><text text-anchor="middle" pointer-events="none" y="10" font-size="10px" fill="#FFFFFF" font-family="sans-serif"> DVR </text></g><g class="node" transform="translate(-17.745758373577132,143.8178897437318)"><circle class="outline" cx="0" cy="0" r="25" fill="#FFC454" stroke="#d7a013" stroke-width="2px"/><text text-anchor="middle" pointer-events="none" font-family="sans-serif" dy="1.5625" font-size="25" fill="#604A0E"/><text text-anchor="middle" pointer-events="none" font-family="sans-serif" dy="1.5625" font-size="25" fill="#604A0E"/><text text-anchor="middle" pointer-events="none" y="0" font-size="10px" fill="#604A0E" font-family="sans-serif"> 补丁：LG</text><text text-anchor="middle" pointer-events="none" y="10" font-size="10px" fill="#604A0E" font-family="sans-serif"> LE6016D</text></g><g class="node" transform="translate(-103.1383475531091,35.203106802406225)"><circle class="outline" cx="0" cy="0" r="32.5" fill="#57C7E3" stroke="#23b3d7" stroke-width="2px"/><text text-anchor="middle" pointer-events="none" font-family="sans-serif" dy="2.03125" font-size="32.5" fill="#FFFFFF"/><text text-anchor="middle" pointer-events="none" font-family="sans-serif" dy="2.03125" font-size="32.5" fill="#FFFFFF"/><text text-anchor="middle" pointer-events="none" y="0" font-size="10px" fill="#FFFFFF" font-family="sans-serif"> Linksys</text><text text-anchor="middle" pointer-events="none" y="10" font-size="10px" fill="#FFFFFF" font-family="sans-serif"> WVC54GCA</text></g><g class="node" transform="translate(-67.19259054829648,106.82872838075667)"><circle class="outline" cx="0" cy="0" r="25" fill="#FFC454" stroke="#d7a013" stroke-width="2px"/><text text-anchor="middle" pointer-events="none" font-family="sans-serif" dy="1.5625" font-size="25" fill="#604A0E"/><text text-anchor="middle" pointer-events="none" y="5" font-size="10px" fill="#604A0E" font-family="sans-serif"> 补丁：V…</text></g><g class="node" transform="translate(112.25592568488977,-101.46918085018194)"><circle class="outline" cx="0" cy="0" r="32.5" fill="#57C7E3" stroke="#23b3d7" stroke-width="2px"/><text text-anchor="middle" pointer-events="none" font-family="sans-serif" dy="2.03125" font-size="32.5" fill="#FFFFFF"/><text text-anchor="middle" pointer-events="none" font-family="sans-serif" dy="2.03125" font-size="32.5" fill="#FFFFFF"/><text text-anchor="middle" pointer-events="none" y="0" font-size="10px" fill="#FFFFFF" font-family="sans-serif"> Linksys</text><text text-anchor="middle" pointer-events="none" y="10" font-size="10px" fill="#FFFFFF" font-family="sans-serif"> WVC11B</text></g><g class="node" transform="translate(32.601842579722174,-111.49822856189468)"><circle class="outline" cx="0" cy="0" r="25" fill="#FFC454" stroke="#d7a013" stroke-width="2px"/><text text-anchor="middle" pointer-events="none" font-family="sans-serif" dy="1.5625" font-size="25" fill="#604A0E"/><text text-anchor="middle" pointer-events="none" y="5" font-size="10px" fill="#604A0E" font-family="sans-serif"> 补丁：V…</text></g><g class="node" transform="translate(-89.35889914307788,-190.91679762079224)"><circle class="outline" cx="0" cy="0" r="32.5" fill="#57C7E3" stroke="#23b3d7" stroke-width="2px"/><text text-anchor="middle" pointer-events="none" font-family="sans-serif" dy="2.03125" font-size="32.5" fill="#FFFFFF"/><text text-anchor="middle" pointer-events="none" font-family="sans-serif" dy="2.03125" font-size="32.5" fill="#FFFFFF"/><text text-anchor="middle" pointer-events="none" y="0" font-size="10px" fill="#FFFFFF" font-family="sans-serif"> TP-Link</text><text text-anchor="middle" pointer-events="none" y="10" font-size="10px" fill="#FFFFFF" font-family="sans-serif"> TL-SC3171</text></g><g class="node" transform="translate(-90.31338645188487,-49.94021152743555)"><circle class="outline" cx="0" cy="0" r="25" fill="#FFC454" stroke="#d7a013" stroke-width="2px"/><text text-anchor="middle" pointer-events="none" font-family="sans-serif" dy="1.5625" font-size="25" fill="#604A0E"/><text text-anchor="middle" pointer-events="none" y="5" font-size="10px" fill="#604A0E" font-family="sans-serif"> 补丁：T…</text></g><g class="node" transform="translate(301.8860686170784,145.9655801425487)"><circle class="outline" cx="0" cy="0" r="32.5" fill="#57C7E3" stroke="#23b3d7" stroke-width="2px"/><text text-anchor="middle" pointer-events="none" font-family="sans-serif" dy="2.03125" font-size="32.5" fill="#FFFFFF"/><text text-anchor="middle" pointer-events="none" font-family="sans-serif" dy="2.03125" font-size="32.5" fill="#FFFFFF"/><text text-anchor="middle" pointer-events="none" y="0" font-size="10px" fill="#FFFFFF" font-family="sans-serif"> TP-Link</text><text text-anchor="middle" pointer-events="none" y="10" font-size="10px" fill="#FFFFFF" font-family="sans-serif"> TL-SC323…</text></g><g class="node" transform="translate(375.16095672640836,205.94719115114611)"><circle class="outline" cx="0" cy="0" r="25" fill="#FFC454" stroke="#d7a013" stroke-width="2px"/><text text-anchor="middle" pointer-events="none" font-family="sans-serif" dy="1.5625" font-size="25" fill="#604A0E"/><text text-anchor="middle" pointer-events="none" y="5" font-size="10px" fill="#604A0E" font-family="sans-serif"> 补丁：T…</text></g><g class="node" transform="translate(223.56302718690785,239.40605756223272)"><circle class="outline" cx="0" cy="0" r="40" fill="#F16667" stroke="#eb2728" stroke-width="2px"/><text text-anchor="middle" pointer-events="none" font-family="sans-serif" dy="2.5" font-size="40" fill="#FFFFFF"/><text text-anchor="middle" pointer-events="none" y="5" font-size="10px" fill="#FFFFFF" font-family="sans-serif"> 缓存溢出</text></g><g class="node" transform="translate(226.4164331250198,-117.99874837519465)"><circle class="outline" cx="0" cy="0" r="32.5" fill="#57C7E3" stroke="#23b3d7" stroke-width="2px"/><text text-anchor="middle" pointer-events="none" font-family="sans-serif" dy="2.03125" font-size="32.5" fill="#FFFFFF"/><text text-anchor="middle" pointer-events="none" font-family="sans-serif" dy="2.03125" font-size="32.5" fill="#FFFFFF"/><text text-anchor="middle" pointer-events="none" y="0" font-size="10px" fill="#FFFFFF" font-family="sans-serif"> Aebell</text><text text-anchor="middle" pointer-events="none" y="10" font-size="10px" fill="#FFFFFF" font-family="sans-serif"> AL-QM5-E…</text></g><g class="node" transform="translate(79.35363288428897,-245.55468113523133)"><circle class="outline" cx="0" cy="0" r="40" fill="#F16667" stroke="#eb2728" stroke-width="2px"/><text text-anchor="middle" pointer-events="none" font-family="sans-serif" dy="2.5" font-size="40" fill="#FFFFFF"/><text text-anchor="middle" pointer-events="none" y="5" font-size="10px" fill="#FFFFFF" font-family="sans-serif"> 命令注入</text></g><g class="node" transform="translate(292.62086364990205,-184.66513469896395)"><circle class="outline" cx="0" cy="0" r="25" fill="#FFC454" stroke="#d7a013" stroke-width="2px"/><text text-anchor="middle" pointer-events="none" font-family="sans-serif" dy="1.5625" font-size="25" fill="#604A0E"/><text text-anchor="middle" pointer-events="none" y="5" font-size="10px" fill="#604A0E" font-family="sans-serif"> 补丁：A…</text></g><g class="node" transform="translate(396.44314552647097,31.279056679199435)"><circle class="outline" cx="0" cy="0" r="40" fill="#F16667" stroke="#eb2728" stroke-width="2px"/><text text-anchor="middle" pointer-events="none" font-family="sans-serif" dy="2.5" font-size="40" fill="#FFFFFF"/><text text-anchor="middle" pointer-events="none" y="5" font-size="10px" fill="#FFFFFF" font-family="sans-serif"> 认证缺失</text></g><g class="node" transform="translate(169.41646243300926,133.2069100873381)"><circle class="outline" cx="0" cy="0" r="32.5" fill="#57C7E3" stroke="#23b3d7" stroke-width="2px"/><text text-anchor="middle" pointer-events="none" font-family="sans-serif" dy="2.03125" font-size="32.5" fill="#FFFFFF"/><text text-anchor="middle" pointer-events="none" font-family="sans-serif" dy="2.03125" font-size="32.5" fill="#FFFFFF"/><text text-anchor="middle" pointer-events="none" y="0" font-size="10px" fill="#FFFFFF" font-family="sans-serif"> AirLive</text><text text-anchor="middle" pointer-events="none" y="10" font-size="10px" fill="#FFFFFF" font-family="sans-serif"> WL2600C…</text></g><g class="node" transform="translate(43.200615879528605,4.361170165092338)"><circle class="outline" cx="0" cy="0" r="40" fill="#F16667" stroke="#eb2728" stroke-width="2px"/><text text-anchor="middle" pointer-events="none" font-family="sans-serif" dy="2.5" font-size="40" fill="#FFFFFF"/><text text-anchor="middle" pointer-events="none" y="5" font-size="10px" fill="#FFFFFF" font-family="sans-serif"> 目录遍历</text></g><g class="node" transform="translate(199.2326991288899,67.98888802345972)"><circle class="outline" cx="0" cy="0" r="25" fill="#FFC454" stroke="#d7a013" stroke-width="2px"/><text text-anchor="middle" pointer-events="none" font-family="sans-serif" dy="1.5625" font-size="25" fill="#604A0E"/><text text-anchor="middle" pointer-events="none" y="5" font-size="10px" fill="#604A0E" font-family="sans-serif"> 补丁：Ai…</text></g><g class="node" transform="translate(-223.26193425570864,20.486073057712176)"><circle class="outline" cx="0" cy="0" r="32.5" fill="#57C7E3" stroke="#23b3d7" stroke-width="2px"/><text text-anchor="middle" pointer-events="none" font-family="sans-serif" dy="2.03125" font-size="32.5" fill="#FFFFFF"/><text text-anchor="middle" pointer-events="none" font-family="sans-serif" dy="2.03125" font-size="32.5" fill="#FFFFFF"/><text text-anchor="middle" pointer-events="none" y="0" font-size="10px" fill="#FFFFFF" font-family="sans-serif"> Brickcom</text><text text-anchor="middle" pointer-events="none" y="10" font-size="10px" fill="#FFFFFF" font-family="sans-serif"> CB-100Ae</text></g><g class="node" transform="translate(-249.50720800678806,144.13085870946875)"><circle class="outline" cx="0" cy="0" r="40" fill="#F16667" stroke="#eb2728" stroke-width="2px"/><text text-anchor="middle" pointer-events="none" font-family="sans-serif" dy="2.5" font-size="40" fill="#FFFFFF"/><text text-anchor="middle" pointer-events="none" y="5" font-size="10px" fill="#FFFFFF" font-family="sans-serif"> 信息泄露</text></g><g class="node" transform="translate(-316.9853684686241,3.672294159956614)"><circle class="outline" cx="0" cy="0" r="25" fill="#FFC454" stroke="#d7a013" stroke-width="2px"/><text text-anchor="middle" pointer-events="none" font-family="sans-serif" dy="1.5625" font-size="25" fill="#604A0E"/><text text-anchor="middle" pointer-events="none" y="5" font-size="10px" fill="#604A0E" font-family="sans-serif"> 补丁：V…</text></g><g class="node" transform="translate(-194.47523850895703,-99.22224618526468)"><circle class="outline" cx="0" cy="0" r="40" fill="#F16667" stroke="#eb2728" stroke-width="2px"/><text text-anchor="middle" pointer-events="none" font-family="sans-serif" dy="2.5" font-size="40" fill="#FFFFFF"/><text text-anchor="middle" pointer-events="none" y="5" font-size="10px" fill="#FFFFFF" font-family="sans-serif"> 硬编码</text></g><g class="node" transform="translate(178.5423336245178,-55.89905971688028)"><circle class="outline" cx="0" cy="0" r="32.5" fill="#57C7E3" stroke="#23b3d7" stroke-width="2px"/><text text-anchor="middle" pointer-events="none" font-family="sans-serif" dy="2.03125" font-size="32.5" fill="#FFFFFF"/><text text-anchor="middle" pointer-events="none" font-family="sans-serif" dy="2.03125" font-size="32.5" fill="#FFFFFF"/><text text-anchor="middle" pointer-events="none" y="0" font-size="10px" fill="#FFFFFF" font-family="sans-serif"> D-Link</text><text text-anchor="middle" pointer-events="none" y="10" font-size="10px" fill="#FFFFFF" font-family="sans-serif"> DCS-2103</text></g><g class="node" transform="translate(208.22129094559278,7.456764265553541)"><circle class="outline" cx="0" cy="0" r="25" fill="#FFC454" stroke="#d7a013" stroke-width="2px"/><text text-anchor="middle" pointer-events="none" font-family="sans-serif" dy="1.5625" font-size="25" fill="#604A0E"/><text text-anchor="middle" pointer-events="none" y="5" font-size="10px" fill="#604A0E" font-family="sans-serif"> 补丁：B…</text></g><g class="node" transform="translate(110.87843154926344,268.8542936948297)"><circle class="outline" cx="0" cy="0" r="32.5" fill="#57C7E3" stroke="#23b3d7" stroke-width="2px"/><text text-anchor="middle" pointer-events="none" font-family="sans-serif" dy="2.03125" font-size="32.5" fill="#FFFFFF"/><text text-anchor="middle" pointer-events="none" font-family="sans-serif" dy="2.03125" font-size="32.5" fill="#FFFFFF"/><text text-anchor="middle" pointer-events="none" y="0" font-size="10px" fill="#FFFFFF" font-family="sans-serif"> D-Link</text><text text-anchor="middle" pointer-events="none" y="10" font-size="10px" fill="#FFFFFF" font-family="sans-serif"> DCS-3411</text></g><g class="node" transform="translate(-21.000615573491757,299.677182925868)"><circle class="outline" cx="0" cy="0" r="40" fill="#F16667" stroke="#eb2728" stroke-width="2px"/><text text-anchor="middle" pointer-events="none" font-family="sans-serif" dy="2.5" font-size="40" fill="#FFFFFF"/><text text-anchor="middle" pointer-events="none" y="5" font-size="10px" fill="#FFFFFF" font-family="sans-serif"> 验证绕过</text></g><g class="node" transform="translate(130.72095898164963,349.6443748489275)"><circle class="outline" cx="0" cy="0" r="25" fill="#FFC454" stroke="#d7a013" stroke-width="2px"/><text text-anchor="middle" pointer-events="none" font-family="sans-serif" dy="1.5625" font-size="25" fill="#604A0E"/><text text-anchor="middle" pointer-events="none" y="5" font-size="10px" fill="#604A0E" font-family="sans-serif"> 补丁：B…</text></g><g class="node" transform="translate(-134.5733422025273,221.5936958308273)"><circle class="outline" cx="0" cy="0" r="32.5" fill="#57C7E3" stroke="#23b3d7" stroke-width="2px"/><text text-anchor="middle" pointer-events="none" font-family="sans-serif" dy="2.03125" font-size="32.5" fill="#FFFFFF"/><text text-anchor="middle" pointer-events="none" font-family="sans-serif" dy="2.03125" font-size="32.5" fill="#FFFFFF"/><text text-anchor="middle" pointer-events="none" y="0" font-size="10px" fill="#FFFFFF" font-family="sans-serif"> Honeywell</text><text text-anchor="middle" pointer-events="none" y="10" font-size="10px" fill="#FFFFFF" font-family="sans-serif"> HICC-1100…</text></g><g class="node" transform="translate(-193.31865298067666,286.87147805638693)"><circle class="outline" cx="0" cy="0" r="25" fill="#FFC454" stroke="#d7a013" stroke-width="2px"/><text text-anchor="middle" pointer-events="none" font-family="sans-serif" dy="1.5625" font-size="25" fill="#604A0E"/><text text-anchor="middle" pointer-events="none" y="5" font-size="10px" fill="#604A0E" font-family="sans-serif"> 补丁：H…</text></g></g></svg>